<svg xmlns="http://www.w3.org/2000/svg" xmlns:xlink="http://www.w3.org/1999/xlink">

<symbol id="peertube" fill-rule="evenodd" clip-rule="evenodd" stroke-linejoin="round" stroke-miterlimit="1.414">
  <path d="M 8.0000035,4.0000022 C 8.0000035,4.0000022 2,8.0000005 2,8.0000005 2,8.0000005 2,0 2,0 2,0 8.0000035,4.0000022 8.0000035,4.0000022 m 0,0 c 0,0 5.9999955,3.9999983 5.9999955,3.9999983 0,0 -5.9999955,4.0000015 -5.9999955,4.0000015 0,0 0,-7.9999998 0,-7.9999998 0,0 0,0 0,0 m 0,7.9999998 C 8.0000035,12.000002 2,16 2,16 2,16 2,8.0000005 2,8.0000005 c 0,0 6.0000035,4.0000015 6.0000035,4.0000015" /></symbol>

</svg>
